<svg width="188" height="50" viewBox="0 0 188 50" fill="none" xmlns="http://www.w3.org/2000/svg">
<path d="M64.0524 22.464V31.5H62.0364V18.72H63.6924L70.9284 27.954V18.738H72.9624V31.5H71.1984L64.0524 22.464ZM84.0252 31.5H82.0452V26.226C82.0452 25.374 81.8892 24.738 81.5772 24.318C81.2652 23.898 80.8272 23.688 80.2632 23.688C79.9032 23.688 79.5372 23.784 79.1652 23.976C78.8052 24.168 78.4812 24.432 78.1932 24.768C77.9052 25.092 77.6952 25.47 77.5632 25.902V31.5H75.5832V18.36H77.5632V23.976C77.9232 23.328 78.4152 22.824 79.0392 22.464C79.6632 22.104 80.3352 21.924 81.0552 21.924C81.8352 21.924 82.4412 22.104 82.8732 22.464C83.3052 22.812 83.6052 23.28 83.7732 23.868C83.9412 24.444 84.0252 25.074 84.0252 25.758V31.5ZM85.6394 28.746C85.6394 28.146 85.8074 27.624 86.1434 27.18C86.4794 26.724 86.9474 26.376 87.5474 26.136C88.1594 25.884 88.8614 25.758 89.6534 25.758C90.0734 25.758 90.4994 25.794 90.9314 25.866C91.3754 25.926 91.7654 26.016 92.1014 26.136V25.542C92.1014 24.882 91.9034 24.366 91.5074 23.994C91.1114 23.622 90.5414 23.436 89.7974 23.436C89.2814 23.436 88.7834 23.526 88.3034 23.706C87.8234 23.886 87.3254 24.15 86.8094 24.498L86.1434 23.166C86.7674 22.758 87.3914 22.452 88.0154 22.248C88.6514 22.032 89.3174 21.924 90.0134 21.924C91.2734 21.924 92.2634 22.26 92.9834 22.932C93.7154 23.592 94.0814 24.534 94.0814 25.758V29.268C94.0814 29.496 94.1174 29.658 94.1894 29.754C94.2734 29.85 94.4114 29.904 94.6034 29.916V31.5C94.4234 31.536 94.2614 31.56 94.1174 31.572C93.9734 31.584 93.8534 31.59 93.7574 31.59C93.3254 31.59 93.0014 31.488 92.7854 31.284C92.5814 31.068 92.4614 30.828 92.4254 30.564L92.3714 30.024C91.9634 30.552 91.4414 30.96 90.8054 31.248C90.1694 31.536 89.5274 31.68 88.8794 31.68C88.2554 31.68 87.6974 31.554 87.2054 31.302C86.7134 31.038 86.3294 30.684 86.0534 30.24C85.7774 29.796 85.6394 29.298 85.6394 28.746ZM91.6334 29.322C91.9454 29.01 92.1014 28.716 92.1014 28.44V27.36C91.3934 27.096 90.6734 26.964 89.9414 26.964C89.2214 26.964 88.6334 27.114 88.1774 27.414C87.7334 27.702 87.5114 28.092 87.5114 28.584C87.5114 28.992 87.6734 29.37 87.9974 29.718C88.3334 30.054 88.8134 30.222 89.4374 30.222C89.8574 30.222 90.2654 30.138 90.6614 29.97C91.0574 29.802 91.3814 29.586 91.6334 29.322ZM104.285 20.502H100.037V31.5H98.0035V20.502H93.7375V18.72H104.285V20.502ZM114.189 31.5H112.209V26.226C112.209 25.374 112.053 24.738 111.741 24.318C111.429 23.898 110.991 23.688 110.427 23.688C110.067 23.688 109.701 23.784 109.329 23.976C108.969 24.168 108.645 24.432 108.357 24.768C108.069 25.092 107.859 25.47 107.727 25.902V31.5H105.747V18.36H107.727V23.976C108.087 23.328 108.579 22.824 109.203 22.464C109.827 22.104 110.499 21.924 111.219 21.924C111.999 21.924 112.605 22.104 113.037 22.464C113.469 22.812 113.769 23.28 113.937 23.868C114.105 24.444 114.189 25.074 114.189 25.758V31.5ZM116.397 27.846V22.086H118.377V27.45C118.377 29.142 118.977 29.988 120.178 29.988C120.741 29.988 121.275 29.814 121.779 29.466C122.283 29.106 122.673 28.602 122.949 27.954V22.086H124.929V29.268C124.929 29.496 124.972 29.658 125.056 29.754C125.14 29.85 125.277 29.904 125.469 29.916V31.5C125.265 31.536 125.097 31.56 124.965 31.572C124.833 31.584 124.707 31.59 124.588 31.59C124.228 31.59 123.928 31.494 123.687 31.302C123.447 31.11 123.309 30.852 123.273 30.528L123.237 29.592C122.817 30.276 122.271 30.798 121.599 31.158C120.927 31.506 120.189 31.68 119.385 31.68C118.401 31.68 117.657 31.356 117.153 30.708C116.649 30.06 116.397 29.106 116.397 27.846ZM131.686 31.68C130.702 31.68 129.844 31.458 129.112 31.014C128.392 30.558 127.834 29.964 127.438 29.232C127.042 28.488 126.844 27.678 126.844 26.802C126.844 25.926 127.042 25.122 127.438 24.39C127.846 23.646 128.41 23.052 129.13 22.608C129.862 22.152 130.714 21.924 131.686 21.924C132.658 21.924 133.504 22.152 134.224 22.608C134.956 23.052 135.52 23.646 135.916 24.39C136.324 25.122 136.528 25.926 136.528 26.802C136.528 27.678 136.33 28.488 135.934 29.232C135.538 29.964 134.974 30.558 134.242 31.014C133.522 31.458 132.67 31.68 131.686 31.68ZM128.878 26.82C128.878 27.42 129.004 27.96 129.256 28.44C129.508 28.92 129.844 29.298 130.264 29.574C130.684 29.85 131.158 29.988 131.686 29.988C132.202 29.988 132.67 29.85 133.09 29.574C133.522 29.286 133.864 28.902 134.116 28.422C134.368 27.942 134.494 27.402 134.494 26.802C134.494 26.202 134.368 25.662 134.116 25.182C133.864 24.702 133.522 24.324 133.09 24.048C132.67 23.76 132.202 23.616 131.686 23.616C131.17 23.616 130.696 23.76 130.264 24.048C129.844 24.324 129.508 24.708 129.256 25.2C129.004 25.68 128.878 26.22 128.878 26.82ZM142.55 31.68C141.578 31.68 140.726 31.458 139.994 31.014C139.262 30.558 138.692 29.958 138.284 29.214C137.876 28.47 137.672 27.66 137.672 26.784C137.672 25.908 137.87 25.104 138.266 24.372C138.674 23.628 139.238 23.034 139.958 22.59C140.69 22.146 141.554 21.924 142.55 21.924C143.522 21.924 144.356 22.14 145.052 22.572C145.76 22.992 146.288 23.556 146.636 24.264L144.71 24.876C144.494 24.48 144.188 24.174 143.792 23.958C143.408 23.73 142.982 23.616 142.514 23.616C141.986 23.616 141.506 23.754 141.074 24.03C140.654 24.294 140.318 24.666 140.066 25.146C139.826 25.626 139.706 26.172 139.706 26.784C139.706 27.396 139.832 27.942 140.084 28.422C140.348 28.902 140.69 29.286 141.11 29.574C141.542 29.85 142.016 29.988 142.532 29.988C143.012 29.988 143.468 29.862 143.9 29.61C144.332 29.358 144.62 29.052 144.764 28.692L146.708 29.268C146.396 29.976 145.874 30.558 145.142 31.014C144.41 31.458 143.546 31.68 142.55 31.68ZM158.381 31.59C157.541 31.59 156.755 31.422 156.023 31.086C155.291 30.75 154.643 30.288 154.079 29.7C153.527 29.1 153.095 28.404 152.783 27.612C152.471 26.82 152.315 25.962 152.315 25.038C152.315 24.162 152.471 23.34 152.783 22.572C153.095 21.792 153.533 21.108 154.097 20.52C154.661 19.932 155.321 19.47 156.077 19.134C156.833 18.798 157.655 18.63 158.543 18.63C159.731 18.63 160.757 18.888 161.621 19.404C162.485 19.908 163.133 20.58 163.565 21.42L161.711 22.788C161.387 22.164 160.931 21.684 160.343 21.348C159.767 21 159.137 20.826 158.453 20.826C157.733 20.826 157.097 21.024 156.545 21.42C156.005 21.816 155.579 22.338 155.267 22.986C154.967 23.634 154.817 24.342 154.817 25.11C154.817 25.914 154.979 26.64 155.303 27.288C155.627 27.936 156.071 28.452 156.635 28.836C157.211 29.208 157.865 29.394 158.597 29.394C159.833 29.394 160.949 28.812 161.945 27.648V26.748H159.371V24.93H163.997V31.5H161.945V30.06C160.913 31.08 159.725 31.59 158.381 31.59ZM166.114 31.5V18.72H171.532C172.12 18.72 172.66 18.84 173.152 19.08C173.656 19.32 174.088 19.644 174.448 20.052C174.808 20.46 175.09 20.916 175.294 21.42C175.498 21.924 175.6 22.44 175.6 22.968C175.6 23.688 175.432 24.372 175.096 25.02C174.76 25.668 174.292 26.196 173.692 26.604C173.104 27.012 172.414 27.216 171.622 27.216H168.598V31.5H166.114ZM168.598 25.038H171.478C171.934 25.038 172.312 24.852 172.612 24.48C172.924 24.096 173.08 23.592 173.08 22.968C173.08 22.308 172.906 21.798 172.558 21.438C172.21 21.078 171.814 20.898 171.37 20.898H168.598V25.038ZM177.329 31.5V18.72H182.747C183.335 18.72 183.875 18.84 184.367 19.08C184.871 19.32 185.303 19.644 185.663 20.052C186.023 20.46 186.305 20.916 186.509 21.42C186.713 21.924 186.815 22.44 186.815 22.968C186.815 23.688 186.647 24.372 186.311 25.02C185.975 25.668 185.507 26.196 184.907 26.604C184.319 27.012 183.629 27.216 182.837 27.216H179.813V31.5H177.329ZM179.813 25.038H182.693C183.149 25.038 183.527 24.852 183.827 24.48C184.139 24.096 184.295 23.592 184.295 22.968C184.295 22.308 184.121 21.798 183.773 21.438C183.425 21.078 183.029 20.898 182.585 20.898H179.813V25.038Z" fill="#1175BB"/>
<path d="M50.5964 21.6854V28.3146C50.5964 30.3371 49.1357 32.0225 47.3379 32.0225H32.6188V46.7416C32.6188 48.5393 30.9335 50 28.911 50H22.2818C20.2593 50 18.5739 48.5393 18.5739 46.7416V32.0225H3.8548C2.05705 32.0225 0.596375 30.3371 0.596375 28.3146V21.6854C0.596375 19.6629 2.05705 17.9775 3.8548 17.9775H18.5739V3.25842C18.5739 1.46067 20.2593 -7.62939e-06 22.2818 -7.62939e-06H28.911C30.9335 -7.62939e-06 32.6188 1.46067 32.6188 3.25842V17.9775H47.3379C49.1357 17.9775 50.5964 19.6629 50.5964 21.6854Z" fill="#1175BB"/>
<path fill-rule="evenodd" clip-rule="evenodd" d="M28.2368 27.8652L29.2481 20.6742C29.2481 20.2247 29.9222 20.2247 30.0346 20.6742L30.9335 25.2809H32.6188C32.8436 25.2809 32.9559 25.3933 32.9559 25.618L33.4054 27.0786L34.6413 23.7079C34.7537 23.3708 35.2031 23.3708 35.3155 23.5955L36.3267 25.2809H50.5964V26.0674C50.0346 26.0674 36.3267 26.0674 36.2144 26.0674C35.7649 26.0674 35.7649 25.8427 35.0908 24.7191L33.7424 28.427C33.6301 28.764 33.0683 28.764 33.0683 28.427L32.3941 26.0674H30.5964C30.3717 26.0674 30.2593 25.9551 30.1469 25.7303L29.5851 23.0337L28.4615 31.0112C28.4615 31.4607 27.7874 31.4607 27.675 31.0112L27.1132 25.9551C26.4391 25.9551 26.5514 25.9551 26.102 24.6067C25.9896 25.2809 25.9896 25.9551 25.5402 25.9551H23.0683C22.6188 25.9551 22.6188 25.5056 22.5065 24.9438L21.72 27.6404C21.6076 27.9775 21.0458 27.9775 20.9335 27.6404L19.2481 19.3258L17.5627 30.6742C17.4503 31.1236 16.8885 31.1236 16.7761 30.6742L15.6526 26.0674L0.596375 25.9551V25.1685C1.04581 25.1685 16.102 25.2809 16.4391 25.3933C16.7761 25.5056 17.2256 28.0899 17.3379 28.5393L19.0233 17.0786C19.1357 16.6292 19.6975 16.6292 19.8099 17.0786L21.6076 26.0674L22.3941 23.3708C22.5065 23.0337 23.0683 23.0337 23.1806 23.3708L23.6301 25.1685H25.3155L25.6526 22.809C25.7649 22.3595 26.3267 22.3595 26.4391 22.809L27.1132 25.1685C27.3379 25.1685 27.7874 25.0562 27.8997 25.5056L28.2368 27.8652Z" fill="white"/>
<path fill-rule="evenodd" clip-rule="evenodd" d="M28.2368 27.8652L29.2481 20.6741C29.2481 20.2247 29.9222 20.2247 30.0346 20.6741L30.9335 25.2809H32.6188C32.8436 25.2809 32.9559 25.3932 32.9559 25.618L33.4054 27.0786L34.6413 23.7079C34.7537 23.3708 35.2031 23.3708 35.3155 23.5955L36.3267 25.2809H50.5964V21.6854C50.5964 19.5506 49.1357 17.9775 47.3379 17.9775H32.6188V3.25842C32.6188 1.46067 30.9335 -7.62939e-06 28.911 -7.62939e-06H22.2818C20.2593 -7.62939e-06 18.5739 1.46067 18.5739 3.25842V17.9775H3.8548C2.05705 17.9775 0.596375 19.6629 0.596375 21.6854V25.1685C1.04581 25.1685 16.102 25.2809 16.4391 25.3933C16.7761 25.5056 17.2256 28.0899 17.3379 28.5393L19.0233 17.0786C19.1357 16.6292 19.6975 16.6292 19.8099 17.0786L21.6076 26.0674L22.3941 23.3708C22.5065 23.0337 23.0683 23.0337 23.1806 23.3708L23.6301 25.1685H25.3155L25.6526 22.809C25.7649 22.3595 26.3267 22.3595 26.4391 22.809L27.1132 25.1685C27.3379 25.1685 27.7874 25.0562 27.8997 25.5056L28.2368 27.8652Z" fill="#F86168"/>
</svg>
